<svg class="w-32 h-10 ml-px fill-current " xmlns="http://www.w3.org/2000/svg" viewBox="0 0 191 50">
  <path d="M175.7 32.4c0-.4.3-.8.8-.8.4 0 .8.3.8.8s-.3.8-.8.8-.8-.3-.8-.8m.1 0c0 .3.3.6.7.6.3 0 .6-.3.6-.6s-.3-.6-.6-.6c-.4 0-.7.3-.7.6"/>
  <path d="M176.8 32.9h-.2l-.3-.4h-.2v.4h-.1V32h.4c.1 0 .2 0 .2.1.1 0 .1.1.1.2 0 .2-.1.2-.3.2l.4.4zm-.4-.5c.1 0 .3 0 .3-.1s-.1-.1-.2-.1h-.2v.3h.1z"/>
  <g>
    <path d="M172.7 33.2c5.5-4.7 13.1-9.2 17.4-10.9-.7-.4-1.7-1-2.8-1.7-5.4 1.8-11.8 5.8-17.5 10.3 1 .8 2 1.5 2.9 2.3z"/>
    <path d="M170.2 20.5c-.8-.4-1.7-.8-2.4-1.1-2.1 1-4.7 2.6-8.1 5 .7.4 1.5.9 2.3 1.3 2.7-1.9 5.3-3.7 8.2-5.2z"/>
    <path d="M175.1 18.2c-1-.5-4.4-1.8-6.8-2.4-.7.3-1.7.7-2.4.9.9.2 4.1 1.1 6.8 2.5.7-.3 1.7-.7 2.4-1z"/>
    <path d="M163.5 17.9c-3 1.4-6.2 3.3-8 4.5.6.3 1.2.5 2.1.9 3.9-2.6 6.9-4.2 8.1-4.7-.9-.3-1.7-.5-2.2-.7z"/>
    <path d="M177.4 17.4c.7-.2 1.5-.4 2.2-.7-2-.9-4.6-1.8-6.9-2.3-.4.1-1.5.4-2.2.6.8.3 3.4.9 6.9 2.4zM164.6 27.2c.8.5 1.7 1.2 2.6 1.7 5.7-4.4 11.3-7.8 17.5-9.8-.9-.4-1.6-.8-2.6-1.3-3.8 1-10.1 3.6-17.5 9.4z"/>
  </g>
  <path class="blue" d="M2.7 31.8h4.2c2.1 0 3.1-1.1 3.1-2.6 0-1.2-.7-2.1-2-2.3 1.2-.3 1.7-1 1.7-2.1 0-1.4-1-2.4-3.1-2.4H2.7v9.4zm3.6-4c.8 0 1.3.4 1.3 1.2 0 .8-.5 1.2-1.3 1.2H4.9v-2.4h1.4zM6 24c.8 0 1.3.3 1.3 1.1s-.5 1.1-1.3 1.1H4.9V24H6zm12.3-1.7H16l-3.6 9.5h2.4l.7-2h3.4l.7 2H22l-3.7-9.5zm-1.1 2.3l1.1 3.5H16l1.2-3.5zm16.6-2.3h-2.2v6.4l-4.1-6.4h-2.4v9.5h2.2v-6.4l4.1 6.4h2.4v-9.5zm10 9.5L40.6 27v4.8h-2.3v-9.5h2.3v4.6l3-4.6h2.6l-3.1 4.6 3.4 4.9h-2.7zm10.9-4.7c0 1.9 1.1 3.1 2.6 3.1s2.6-1.2 2.6-3.1c0-1.9-1.1-3.1-2.6-3.1s-2.6 1.2-2.6 3.1zm-2.5 0c0-2.8 2-5 5.1-5 3.1 0 5.1 2.2 5.1 5s-2 5-5.1 5c-3.1 0-5-2.2-5.1-5zm13.4 4.7h2.3v-3.7h3v-1.8h-3v-2.1h3.6l.4-1.8h-6.4l.1 9.4zm17.1-9.5h-2.3l-3.6 9.5h2.4l.7-2h3.4l.7 2h2.4l-3.7-9.5zm-1.1 2.3l1.1 3.5h-2.3l1.2-3.5zm18.5-2.3h-2.7l-2.5 5.2-2.5-5.2h-2.7v9.5h2.1v-6.4l3.1 6.4 3.1-6.4v6.4h2.2l-.1-9.5zm4.5 9.5h6.5V30h-4.2v-2.1h3.3v-1.8h-3.3v-2h3.8l.4-1.8h-6.6v9.5zm15.3 0h2.5l-2.4-4c1.3-.4 1.9-1.3 1.9-2.6 0-1.7-1-2.9-3.4-2.9h-3.7v9.5h2.3v-3.7h.6l2.2 3.7zm-1.7-7.7c1 0 1.5.4 1.5 1.2s-.5 1.2-1.5 1.2h-1v-2.4h1zm7.7 7.7h2.3v-9.5h-2.3v9.5zm13.7-2.5c-.9.6-1.7.8-2.5.8-1.8 0-3-1.2-3-3s1.2-3 2.9-3c.8 0 1.6.2 2.4.8v-2.2c-.8-.4-1.7-.6-2.7-.6-3.1 0-5.1 2.2-5.2 5 0 2.8 2 5 5.2 5 1.1 0 2-.2 2.8-.6l.1-2.2zm8.5-7h-2.3l-3.6 9.5h2.4l.7-2h3.4l.7 2h2.4l-3.7-9.5zm-1.2 2.3l1.1 3.5h-2.3l1.2-3.5z"/>
</svg>
