<svg class="w-20 h-6 mt-2 fill-current" xmlns="http://www.w3.org/2000/svg" version="1" viewBox="0 0 298.723 56.517">
  <g class="logo">
    <path d="M261.929.275a1.94 1.94 0 0 0-1.941 1.94V15.82h35.94L279.562.276 261.93.275M297.244 19.937A1.934 1.934 0 0 0 295.303 18H281.7V53.94l15.538-16.375.006-17.629M277.579 55.242c1.07 0 1.939-.87 1.939-1.943V39.697h-35.943l16.37 15.543 17.634.002M242.261 35.582c0 1.073.87 1.947 1.944 1.947h13.6V1.584l-15.541 16.37-.003 17.628"/>
  </g>
  <g class="text">
    <path d="M77.52 6.836v16.599H54.395V6.836l-8.422-.007V48.68h8.422v-17.98H77.52v17.98h8.436V6.836H77.52M189.566 6.836v41.835h36.952l-4.68-7.365h-23.825V30.701h23.07v-7.094h-23.07V14.03h23.785l4.585-7.193h-36.817M14.665 6.826c-8.761 0-13.186 5.326-13.186 13.076v15.623c0 8.969 5.702 13.156 13.142 13.156l26.425-.002-4.898-7.65H16.254c-4.226 0-6.068-1.528-6.068-6.258V20.597c0-4.572 1.55-6.356 6.18-6.356h19.99l4.703-7.415H14.665M152.606 6.816c-5.06 0-10.246 3.041-10.246 10.864v2.01c0 8.155 4.99 11.266 9.983 11.287h17.523c1.82 0 3.3.303 3.3 3.38l-.003 3.553c-.047 2.764-1.425 3.396-3.36 3.396H146.75l-4.722 7.365h28.318c6.83 0 11.465-3.397 11.465-11.245v-2.884c0-7.587-4.307-11.172-10.986-11.172h-16.732c-1.855 0-3.148-.506-3.148-3.254v-2.894c0-2.34.886-3.193 3.048-3.193l21.955-.01 4.588-7.213-27.93.01M110.426 6.836L90.583 48.68h9.378l3.865-8.642h21.564l3.853 8.642h9.42l-19.89-41.843h-8.347zm4.162 8.688l7.625 17.39H107.01l7.577-17.39"/>
  </g>
</svg>
