<?xml version="1.0" encoding="UTF-8"?>
<svg class="w-20 h-6 mt-2 fill-current" viewBox="0 0 401 122" version="1.1" xmlns="http://www.w3.org/2000/svg" xmlns:xlink="http://www.w3.org/1999/xlink">
    <path d="M233.5,89.7 C226.8,86.6 224.3,79.4 227.5,72.6 C230.1,67.1 235.5,64.7 246.3,64.2 C251.1,64 255,63.4 255,62.9 C255,59.2 242.9,57.7 235.1,60.5 L231,61.9 L231,50.1 L235.8,49.3 C238.4,48.9 244.6,48.5 249.6,48.6 C257.1,48.6 259.5,49 263.5,51.1 C271.8,55.2 272.5,56.8 272.8,74.6 L273.1,90 L264.1,90 C255,90 255,90 255,87.4 L255,84.9 L251.4,87.6 C247.1,90.9 238.4,91.9 233.5,89.7 Z M252.5,78.5 C253.9,77.2 255,75.2 255,74 C255,72.4 254.4,72 251.7,72 C245.6,72 241.5,77.4 245.8,79.9 C248.5,81.5 249.9,81.2 252.5,78.5 Z M169,62.5 L169,34.8 L189.8,35.2 C213,35.6 216.4,36.4 220,42.2 C223.9,48.6 221.5,57.1 214.9,60.5 L211.8,62.2 L215.1,63.8 C220.2,66.4 223.3,71.6 222.7,76.7 C222.1,82 220,85.4 215.7,87.7 C213,89.2 209.3,89.5 190.8,89.8 L169,90.1 L169,62.5 Z M198.3,77.9 C200.9,76.5 202,75.1 202,72.8 C202,69.6 199.1,68 193.4,68 L188,68 L188,72.8 C188,75.5 188.3,78 188.7,78.3 C189.7,79.4 195.9,79.1 198.3,77.9 Z M199.1,55 C201.3,53.8 201.7,49.1 199.8,47.2 C199.1,46.5 196.2,46 193.3,46 L188,46 L188,56 L192.6,56 C195.1,56 198,55.5 199.1,55 Z M278.2,69.8 L278.5,49.5 L287.8,49.2 L297,48.9 L297,51.5 C297,54.6 297.5,54.6 301.1,51.6 C306.7,46.9 317.2,47.4 322.1,52.6 C324.4,55.1 324.5,55.7 324.8,72.6 L325.1,90 L305.1,90 L304.8,75.8 C304.5,62.6 304.4,61.5 302.6,61.2 C298.9,60.4 298,63.6 298,77.2 L298,90 L278,90 L278.2,69.8 Z M332,60.5 L332,31 L351,31 L351,47.5 C351,56.6 351.4,64 351.8,64 C352.3,64 355,60.6 357.9,56.5 L363.1,49 L374.1,49 C382.7,49 384.9,49.3 384.3,50.3 C383.9,50.9 381.1,54.7 378.2,58.5 C375.2,62.4 372.5,66.1 372.3,66.7 C372,67.4 374.8,72.6 378.4,78.3 C382,84 385,89 385,89.3 C385,89.7 379.9,90 373.8,90 L362.5,90 L357.6,81 C354.9,76 352.3,72 351.8,72 C351.4,72 351,76.1 351,81 L351,90 L332,90 L332,60.5 Z"></path>
    <polygon id="Path" stroke="#FFFFFF" stroke-width="2" fill="#FFFFFF" stroke-linejoin="round" points="6 17 140 17 140 105 6 105"></polygon>
    <path d="M0,61 L0,0 L145,0 L145,122 L0,122 L0,61 Z M57,65.5 L57,35 L78.3,35 C97.8,35 99.8,35.2 102.8,37 C109.1,40.8 112.2,54.2 110.2,68.2 C108,82.9 103.6,86.3 87.8,85.8 L78.5,85.5 L78.2,62.3 L78,39 L61,39 L61,96.2 L84.8,95.8 L108.5,95.5 L114.3,92.7 C123.6,88.1 127.7,80.1 128.7,64.5 C129.3,54.7 127.9,43.7 125.3,38.6 C123.1,34.2 119.1,30.2 114.5,27.7 C110.6,25.5 109.5,25.5 62.8,25.2 L15,24.9 L15,35 L40,35 L40,96 L57,96 L57,65.5 Z"></path>
</svg>