<?xml version="1.0" encoding="UTF-8"?>
<svg class="w-24 h-6 mt-2 fill-current" viewBox="0 0 211 22" version="1.1" xmlns="http://www.w3.org/2000/svg" xmlns:xlink="http://www.w3.org/1999/xlink">
  <path d="M45.112,14.17 L47.169,14.17 L47.169,21 L29.998,21 L29.998,18.514 L32.426,18.514 L32.426,3.485 L28.486,3.485 L23.486,21 L19.514,21 L15.457,6.486 L11.286,21 L7.314,21 L2.286,3.485 L0,3.485 L0,1 L9.314,1 L9.314,3.485 L6.63,3.485 L9.97,15.543 L13.97,1 L18.085,1 L22.171,15.572 L25.456,3.485 L22.656,3.485 L22.656,1 L46.883,1 L46.883,7.485 L44.825,7.485 L44.625,6.714 C43.997,4.314 43.34,3.485 41.425,3.485 L36.682,3.485 L36.682,9.514 L42.425,9.514 C42.643,9.938 42.751,10.409 42.74,10.886 C42.754,11.38 42.646,11.871 42.425,12.314 L36.682,12.314 L36.682,18.514 L41.625,18.514 C43.482,18.514 44.311,17.714 44.883,15.171 L45.111,14.171 L45.112,14.17 Z M63.168,15.17 C62.596,17.714 61.796,18.514 59.91,18.514 L55.94,18.514 L55.94,3.485 L58.654,3.485 L58.654,1 L49.254,1 L49.254,3.485 L51.683,3.485 L51.683,18.515 L49.254,18.515 L49.254,21 L65.454,21 L65.454,14.17 L63.397,14.17 L63.169,15.17 L63.168,15.17 Z M81.166,15.17 C80.594,17.714 79.795,18.514 77.909,18.514 L73.937,18.514 L73.937,3.485 L76.652,3.485 L76.652,1 L67.252,1 L67.252,3.485 L69.68,3.485 L69.68,18.515 L67.251,18.515 L67.251,21 L83.451,21 L83.451,14.17 L81.394,14.17 L81.166,15.17 Z M96.221,9.285 L92.593,8.457 C90.478,7.971 89.593,7.143 89.593,5.742 C89.593,4.057 90.936,3 93.564,3 C96.193,3 97.736,3.943 98.336,6.171 L98.593,7.143 L100.65,7.143 L100.65,2.2 C98.4047322,1.04492441 95.9179421,0.437704892 93.393,0.428 C88.507,0.428 85.364,2.771 85.364,6.542 C85.364,9.457 87.193,11.6 90.707,12.371 L94.336,13.171 C96.65,13.685 97.507,14.6 97.507,16.114 C97.507,17.971 96.107,19 93.307,19 C90.135,19 88.507,17.742 87.792,15.342 L87.422,14.114 L85.364,14.114 L85.364,19.714 C87.9784949,21.0159189 90.8734563,21.6537103 93.793,21.571 C98.593,21.571 101.735,19.171 101.735,15.428 C101.735,12.285 99.821,10.114 96.221,9.285 Z M123.761,3.485 C125.676,3.485 126.333,4.314 126.961,6.714 L127.161,7.485 L129.219,7.485 L129.219,1 L111.99,1 L111.99,3.485 L114.419,3.485 L114.419,18.515 L111.99,18.515 L111.99,21 L121.533,21 L121.533,18.514 L118.676,18.514 L118.676,12.685 L124.562,12.685 C124.782,12.242 124.891,11.752 124.876,11.257 C124.887685,10.7809269 124.779722,10.309532 124.562,9.886 L118.676,9.886 L118.676,3.486 L123.761,3.486 L123.761,3.485 Z M167.301,18.742 C167.644,19.486 167.644,20.342 167.301,21.086 C166.562,21.181 165.818,21.229 165.073,21.228 C162.302,21.228 160.959,20.085 160.644,17.428 L160.53,16.428 C160.187,13.543 159.244,12.428 156.101,12.428 L154.53,12.428 L154.53,18.514 L157.244,18.514 L157.244,21 L139.274,21 L139.274,18.514 L141.617,18.514 L140.303,14.943 L132.874,14.943 L131.56,18.514 L133.96,18.514 L133.96,21 L126.388,21 L126.388,18.514 L128.388,18.514 L135.388,1 L139.188,1 L146.331,18.514 L150.272,18.514 L150.272,3.485 L147.844,3.485 L147.844,1 L159.33,1 C163.416,1 166.073,3.029 166.073,6.286 C166.073,9.514 163.416,11.229 160.844,11.343 L160.844,11.429 C163.444,11.629 164.501,13.086 164.758,15.343 L164.873,16.4 C165.044,18.057 165.387,18.8 166.702,18.8 C166.902,18.798 167.103,18.778 167.302,18.742 L167.301,18.742 Z M139.389,12.514 L136.589,4.943 L133.789,12.513 L139.389,12.513 L139.389,12.514 Z M161.759,6.686 C161.759,4.6 160.473,3.486 157.902,3.486 L154.53,3.486 L154.53,9.914 L157.901,9.914 C160.444,9.914 161.758,8.743 161.758,6.686 L161.759,6.686 Z M178.821,11.886 C178.803,12.371 178.911,12.854 179.135,13.286 L182.535,13.286 L182.535,18.343 C181.465798,18.7826397 180.320045,19.0059444 179.164,19 C175.05,19 172.907,16.057 172.907,10.971 C172.907,5.886 175.05,2.943 178.935,2.943 C181.211258,2.82579672 183.274185,4.27562206 183.935,6.457 L184.249,7.257 L186.307,7.257 L186.307,2.142 C183.957233,0.964970453 181.363046,0.358563911 178.735,0.372 C172.45,0.372 168.221,4.572 168.221,11 C168.221,17.457 172.335,21.572 178.735,21.572 C181.529703,21.4976534 184.268699,20.7735314 186.735,19.457 L186.735,10.542 L179.135,10.542 C178.915,10.955 178.806,11.418 178.821,11.886 Z M210.627,10.971 C210.609,16.829 205.855,21.567 199.997,21.567 C194.141,21.567 189.387,16.829 189.369,10.971 C189.387,5.114 194.141,0.375 199.998,0.375 C205.855,0.375 210.608,5.114 210.627,10.971 Z M205.941,10.971 C205.941,5.914 203.855,2.971 199.998,2.971 C196.141,2.971 194.055,5.914 194.055,10.971 C194.055,16.057 196.112,18.971 199.998,18.971 C203.883,18.971 205.94,16.057 205.94,10.971 L205.941,10.971 Z" id="Shape"></path>
</svg>